<mxfile host="app.diagrams.net" modified="2024-04-30T12:24:59.457Z" agent="Mozilla/5.0 (Windows NT 10.0; Win64; x64) AppleWebKit/537.36 (KHTML, like Gecko) Chrome/124.0.0.0 Safari/537.36" etag="oO-UY6o_7sKCHKQO3lxo" version="24.1.0" type="device">
  <diagram id="C5RBs43oDa-KdzZeNtuy" name="Page-1">
    <mxGraphModel dx="869" dy="473" grid="1" gridSize="10" guides="1" tooltips="1" connect="1" arrows="1" fold="1" page="1" pageScale="1" pageWidth="827" pageHeight="1169" math="0" shadow="0">
      <root>
        <mxCell id="WIyWlLk6GJQsqaUBKTNV-0" />
        <mxCell id="WIyWlLk6GJQsqaUBKTNV-1" parent="WIyWlLk6GJQsqaUBKTNV-0" />
        <mxCell id="b1ORVTBcM8QreffQEjI8-5" style="edgeStyle=orthogonalEdgeStyle;rounded=0;orthogonalLoop=1;jettySize=auto;html=1;" parent="WIyWlLk6GJQsqaUBKTNV-1" source="WIyWlLk6GJQsqaUBKTNV-3" target="b1ORVTBcM8QreffQEjI8-4" edge="1">
          <mxGeometry relative="1" as="geometry" />
        </mxCell>
        <mxCell id="WIyWlLk6GJQsqaUBKTNV-3" value="Начало" style="rounded=1;whiteSpace=wrap;html=1;fontSize=12;glass=0;strokeWidth=1;shadow=0;" parent="WIyWlLk6GJQsqaUBKTNV-1" vertex="1">
          <mxGeometry x="190" y="30" width="80" height="30" as="geometry" />
        </mxCell>
        <mxCell id="b1ORVTBcM8QreffQEjI8-7" style="edgeStyle=orthogonalEdgeStyle;rounded=0;orthogonalLoop=1;jettySize=auto;html=1;" parent="WIyWlLk6GJQsqaUBKTNV-1" source="b1ORVTBcM8QreffQEjI8-4" target="b1ORVTBcM8QreffQEjI8-6" edge="1">
          <mxGeometry relative="1" as="geometry" />
        </mxCell>
        <mxCell id="b1ORVTBcM8QreffQEjI8-4" value="Объявление&amp;nbsp; переменных сообщений и буфера" style="rounded=0;whiteSpace=wrap;html=1;" parent="WIyWlLk6GJQsqaUBKTNV-1" vertex="1">
          <mxGeometry x="140" y="80" width="180" height="50" as="geometry" />
        </mxCell>
        <mxCell id="vxpqx_h1XbM0o7AQPfHb-7" style="edgeStyle=orthogonalEdgeStyle;rounded=0;orthogonalLoop=1;jettySize=auto;html=1;exitX=0.5;exitY=1;exitDx=0;exitDy=0;entryX=0.5;entryY=0;entryDx=0;entryDy=0;" edge="1" parent="WIyWlLk6GJQsqaUBKTNV-1" source="b1ORVTBcM8QreffQEjI8-6" target="vxpqx_h1XbM0o7AQPfHb-1">
          <mxGeometry relative="1" as="geometry" />
        </mxCell>
        <mxCell id="b1ORVTBcM8QreffQEjI8-6" value="Загрузка регистров" style="rounded=0;whiteSpace=wrap;html=1;" parent="WIyWlLk6GJQsqaUBKTNV-1" vertex="1">
          <mxGeometry x="190" y="150" width="80" height="40" as="geometry" />
        </mxCell>
        <mxCell id="b1ORVTBcM8QreffQEjI8-8" value="Конец" style="rounded=1;whiteSpace=wrap;html=1;fontSize=12;glass=0;strokeWidth=1;shadow=0;" parent="WIyWlLk6GJQsqaUBKTNV-1" vertex="1">
          <mxGeometry x="70" y="540" width="80" height="30" as="geometry" />
        </mxCell>
        <mxCell id="vxpqx_h1XbM0o7AQPfHb-8" style="edgeStyle=orthogonalEdgeStyle;rounded=0;orthogonalLoop=1;jettySize=auto;html=1;exitX=0.5;exitY=1;exitDx=0;exitDy=0;entryX=0.5;entryY=0;entryDx=0;entryDy=0;" edge="1" parent="WIyWlLk6GJQsqaUBKTNV-1" source="vxpqx_h1XbM0o7AQPfHb-1" target="vxpqx_h1XbM0o7AQPfHb-2">
          <mxGeometry relative="1" as="geometry" />
        </mxCell>
        <mxCell id="vxpqx_h1XbM0o7AQPfHb-1" value="Очистка экрана" style="rounded=0;whiteSpace=wrap;html=1;" vertex="1" parent="WIyWlLk6GJQsqaUBKTNV-1">
          <mxGeometry x="180" y="210" width="100" height="40" as="geometry" />
        </mxCell>
        <mxCell id="vxpqx_h1XbM0o7AQPfHb-9" style="edgeStyle=orthogonalEdgeStyle;rounded=0;orthogonalLoop=1;jettySize=auto;html=1;exitX=0.5;exitY=1;exitDx=0;exitDy=0;entryX=0.5;entryY=0;entryDx=0;entryDy=0;" edge="1" parent="WIyWlLk6GJQsqaUBKTNV-1" source="vxpqx_h1XbM0o7AQPfHb-2" target="vxpqx_h1XbM0o7AQPfHb-4">
          <mxGeometry relative="1" as="geometry" />
        </mxCell>
        <mxCell id="vxpqx_h1XbM0o7AQPfHb-2" value="Вывод приветственного сообщения" style="rounded=0;whiteSpace=wrap;html=1;" vertex="1" parent="WIyWlLk6GJQsqaUBKTNV-1">
          <mxGeometry x="180" y="270" width="100" height="40" as="geometry" />
        </mxCell>
        <mxCell id="vxpqx_h1XbM0o7AQPfHb-12" style="edgeStyle=orthogonalEdgeStyle;rounded=0;orthogonalLoop=1;jettySize=auto;html=1;entryX=0.5;entryY=0;entryDx=0;entryDy=0;" edge="1" parent="WIyWlLk6GJQsqaUBKTNV-1" source="vxpqx_h1XbM0o7AQPfHb-3" target="vxpqx_h1XbM0o7AQPfHb-11">
          <mxGeometry relative="1" as="geometry" />
        </mxCell>
        <mxCell id="vxpqx_h1XbM0o7AQPfHb-3" value="Очистка экрана" style="rounded=0;whiteSpace=wrap;html=1;" vertex="1" parent="WIyWlLk6GJQsqaUBKTNV-1">
          <mxGeometry x="180" y="390" width="100" height="40" as="geometry" />
        </mxCell>
        <mxCell id="vxpqx_h1XbM0o7AQPfHb-10" style="edgeStyle=orthogonalEdgeStyle;rounded=0;orthogonalLoop=1;jettySize=auto;html=1;exitX=0.5;exitY=1;exitDx=0;exitDy=0;" edge="1" parent="WIyWlLk6GJQsqaUBKTNV-1" source="vxpqx_h1XbM0o7AQPfHb-4" target="vxpqx_h1XbM0o7AQPfHb-3">
          <mxGeometry relative="1" as="geometry" />
        </mxCell>
        <mxCell id="vxpqx_h1XbM0o7AQPfHb-4" value="loopmain" style="rhombus;whiteSpace=wrap;html=1;" vertex="1" parent="WIyWlLk6GJQsqaUBKTNV-1">
          <mxGeometry x="180" y="330" width="100" height="40" as="geometry" />
        </mxCell>
        <mxCell id="vxpqx_h1XbM0o7AQPfHb-37" style="edgeStyle=orthogonalEdgeStyle;rounded=0;orthogonalLoop=1;jettySize=auto;html=1;" edge="1" parent="WIyWlLk6GJQsqaUBKTNV-1" source="vxpqx_h1XbM0o7AQPfHb-11" target="vxpqx_h1XbM0o7AQPfHb-36">
          <mxGeometry relative="1" as="geometry" />
        </mxCell>
        <mxCell id="vxpqx_h1XbM0o7AQPfHb-52" style="edgeStyle=orthogonalEdgeStyle;rounded=0;orthogonalLoop=1;jettySize=auto;html=1;entryX=0.5;entryY=0;entryDx=0;entryDy=0;" edge="1" parent="WIyWlLk6GJQsqaUBKTNV-1" source="vxpqx_h1XbM0o7AQPfHb-11" target="vxpqx_h1XbM0o7AQPfHb-51">
          <mxGeometry relative="1" as="geometry" />
        </mxCell>
        <mxCell id="vxpqx_h1XbM0o7AQPfHb-11" value="1" style="ellipse;whiteSpace=wrap;html=1;aspect=fixed;" vertex="1" parent="WIyWlLk6GJQsqaUBKTNV-1">
          <mxGeometry x="215" y="450" width="30" height="30" as="geometry" />
        </mxCell>
        <mxCell id="vxpqx_h1XbM0o7AQPfHb-15" style="edgeStyle=orthogonalEdgeStyle;rounded=0;orthogonalLoop=1;jettySize=auto;html=1;entryX=0.5;entryY=0;entryDx=0;entryDy=0;" edge="1" parent="WIyWlLk6GJQsqaUBKTNV-1" source="vxpqx_h1XbM0o7AQPfHb-13" target="vxpqx_h1XbM0o7AQPfHb-14">
          <mxGeometry relative="1" as="geometry" />
        </mxCell>
        <mxCell id="vxpqx_h1XbM0o7AQPfHb-13" value="1" style="ellipse;whiteSpace=wrap;html=1;aspect=fixed;" vertex="1" parent="WIyWlLk6GJQsqaUBKTNV-1">
          <mxGeometry x="52.489999999999995" y="70" width="30" height="30" as="geometry" />
        </mxCell>
        <mxCell id="vxpqx_h1XbM0o7AQPfHb-17" style="edgeStyle=orthogonalEdgeStyle;rounded=0;orthogonalLoop=1;jettySize=auto;html=1;exitX=0.5;exitY=1;exitDx=0;exitDy=0;" edge="1" parent="WIyWlLk6GJQsqaUBKTNV-1" source="vxpqx_h1XbM0o7AQPfHb-14" target="vxpqx_h1XbM0o7AQPfHb-16">
          <mxGeometry relative="1" as="geometry" />
        </mxCell>
        <mxCell id="vxpqx_h1XbM0o7AQPfHb-14" value="Ввод строки&lt;div&gt;в буфер&lt;/div&gt;" style="shape=parallelogram;perimeter=parallelogramPerimeter;whiteSpace=wrap;html=1;fixedSize=1;" vertex="1" parent="WIyWlLk6GJQsqaUBKTNV-1">
          <mxGeometry x="17.489999999999995" y="125" width="100" height="40" as="geometry" />
        </mxCell>
        <mxCell id="vxpqx_h1XbM0o7AQPfHb-19" style="edgeStyle=orthogonalEdgeStyle;rounded=0;orthogonalLoop=1;jettySize=auto;html=1;exitX=0.5;exitY=1;exitDx=0;exitDy=0;" edge="1" parent="WIyWlLk6GJQsqaUBKTNV-1" source="vxpqx_h1XbM0o7AQPfHb-16" target="vxpqx_h1XbM0o7AQPfHb-18">
          <mxGeometry relative="1" as="geometry" />
        </mxCell>
        <mxCell id="vxpqx_h1XbM0o7AQPfHb-29" style="edgeStyle=orthogonalEdgeStyle;rounded=0;orthogonalLoop=1;jettySize=auto;html=1;exitX=1;exitY=0.5;exitDx=0;exitDy=0;" edge="1" parent="WIyWlLk6GJQsqaUBKTNV-1" source="vxpqx_h1XbM0o7AQPfHb-16" target="vxpqx_h1XbM0o7AQPfHb-27">
          <mxGeometry relative="1" as="geometry" />
        </mxCell>
        <mxCell id="vxpqx_h1XbM0o7AQPfHb-16" value="Конец строки?" style="rhombus;whiteSpace=wrap;html=1;" vertex="1" parent="WIyWlLk6GJQsqaUBKTNV-1">
          <mxGeometry x="17.489999999999995" y="185" width="100" height="40" as="geometry" />
        </mxCell>
        <mxCell id="vxpqx_h1XbM0o7AQPfHb-20" style="edgeStyle=orthogonalEdgeStyle;rounded=0;orthogonalLoop=1;jettySize=auto;html=1;entryX=0;entryY=0.5;entryDx=0;entryDy=0;" edge="1" parent="WIyWlLk6GJQsqaUBKTNV-1" source="vxpqx_h1XbM0o7AQPfHb-18" target="vxpqx_h1XbM0o7AQPfHb-14">
          <mxGeometry relative="1" as="geometry">
            <Array as="points">
              <mxPoint x="67.49" y="315" />
              <mxPoint x="7.489999999999995" y="315" />
              <mxPoint x="7.489999999999995" y="145" />
            </Array>
          </mxGeometry>
        </mxCell>
        <mxCell id="vxpqx_h1XbM0o7AQPfHb-31" style="edgeStyle=orthogonalEdgeStyle;rounded=0;orthogonalLoop=1;jettySize=auto;html=1;exitX=1;exitY=0.5;exitDx=0;exitDy=0;entryX=0.5;entryY=0;entryDx=0;entryDy=0;" edge="1" parent="WIyWlLk6GJQsqaUBKTNV-1" source="vxpqx_h1XbM0o7AQPfHb-18" target="vxpqx_h1XbM0o7AQPfHb-30">
          <mxGeometry relative="1" as="geometry" />
        </mxCell>
        <mxCell id="vxpqx_h1XbM0o7AQPfHb-18" value="Конец программы" style="rhombus;whiteSpace=wrap;html=1;" vertex="1" parent="WIyWlLk6GJQsqaUBKTNV-1">
          <mxGeometry x="17.489999999999995" y="245" width="100" height="60" as="geometry" />
        </mxCell>
        <mxCell id="vxpqx_h1XbM0o7AQPfHb-21" value="Нет" style="text;html=1;align=center;verticalAlign=middle;whiteSpace=wrap;rounded=0;" vertex="1" parent="WIyWlLk6GJQsqaUBKTNV-1">
          <mxGeometry x="27.489999999999995" y="225" width="30" height="20" as="geometry" />
        </mxCell>
        <mxCell id="vxpqx_h1XbM0o7AQPfHb-22" value="Нет" style="text;html=1;align=center;verticalAlign=middle;whiteSpace=wrap;rounded=0;" vertex="1" parent="WIyWlLk6GJQsqaUBKTNV-1">
          <mxGeometry x="27.489999999999995" y="295" width="30" height="20" as="geometry" />
        </mxCell>
        <mxCell id="vxpqx_h1XbM0o7AQPfHb-25" value="GETSTRING" style="rounded=1;whiteSpace=wrap;html=1;" vertex="1" parent="WIyWlLk6GJQsqaUBKTNV-1">
          <mxGeometry x="280" y="450" width="70" height="30" as="geometry" />
        </mxCell>
        <mxCell id="vxpqx_h1XbM0o7AQPfHb-26" value="" style="endArrow=classic;startArrow=classic;html=1;rounded=0;" edge="1" parent="WIyWlLk6GJQsqaUBKTNV-1" source="vxpqx_h1XbM0o7AQPfHb-11" target="vxpqx_h1XbM0o7AQPfHb-25">
          <mxGeometry width="50" height="50" relative="1" as="geometry">
            <mxPoint x="170" y="430" as="sourcePoint" />
            <mxPoint x="220" y="380" as="targetPoint" />
          </mxGeometry>
        </mxCell>
        <mxCell id="vxpqx_h1XbM0o7AQPfHb-27" value="Конец 1" style="rounded=1;whiteSpace=wrap;html=1;fontSize=12;glass=0;strokeWidth=1;shadow=0;" vertex="1" parent="WIyWlLk6GJQsqaUBKTNV-1">
          <mxGeometry x="114.97999999999999" y="225" width="50" height="20" as="geometry" />
        </mxCell>
        <mxCell id="vxpqx_h1XbM0o7AQPfHb-30" value="term" style="rhombus;whiteSpace=wrap;html=1;" vertex="1" parent="WIyWlLk6GJQsqaUBKTNV-1">
          <mxGeometry x="114.97999999999999" y="290" width="55.02" height="20" as="geometry" />
        </mxCell>
        <mxCell id="vxpqx_h1XbM0o7AQPfHb-35" style="edgeStyle=orthogonalEdgeStyle;rounded=0;orthogonalLoop=1;jettySize=auto;html=1;" edge="1" parent="WIyWlLk6GJQsqaUBKTNV-1" source="vxpqx_h1XbM0o7AQPfHb-32" target="vxpqx_h1XbM0o7AQPfHb-34">
          <mxGeometry relative="1" as="geometry" />
        </mxCell>
        <mxCell id="vxpqx_h1XbM0o7AQPfHb-32" value="Вывод оформления" style="rounded=0;whiteSpace=wrap;html=1;" vertex="1" parent="WIyWlLk6GJQsqaUBKTNV-1">
          <mxGeometry x="190" y="560" width="80" height="40" as="geometry" />
        </mxCell>
        <mxCell id="vxpqx_h1XbM0o7AQPfHb-40" style="edgeStyle=orthogonalEdgeStyle;rounded=0;orthogonalLoop=1;jettySize=auto;html=1;" edge="1" parent="WIyWlLk6GJQsqaUBKTNV-1" source="vxpqx_h1XbM0o7AQPfHb-34" target="vxpqx_h1XbM0o7AQPfHb-39">
          <mxGeometry relative="1" as="geometry" />
        </mxCell>
        <mxCell id="vxpqx_h1XbM0o7AQPfHb-49" style="edgeStyle=orthogonalEdgeStyle;rounded=0;orthogonalLoop=1;jettySize=auto;html=1;exitX=1;exitY=0.5;exitDx=0;exitDy=0;entryX=1;entryY=0.5;entryDx=0;entryDy=0;" edge="1" parent="WIyWlLk6GJQsqaUBKTNV-1" source="vxpqx_h1XbM0o7AQPfHb-34" target="vxpqx_h1XbM0o7AQPfHb-4">
          <mxGeometry relative="1" as="geometry">
            <Array as="points">
              <mxPoint x="360" y="640" />
              <mxPoint x="360" y="350" />
            </Array>
          </mxGeometry>
        </mxCell>
        <mxCell id="vxpqx_h1XbM0o7AQPfHb-34" value="loopstr" style="rhombus;whiteSpace=wrap;html=1;" vertex="1" parent="WIyWlLk6GJQsqaUBKTNV-1">
          <mxGeometry x="180" y="620" width="100" height="40" as="geometry" />
        </mxCell>
        <mxCell id="vxpqx_h1XbM0o7AQPfHb-38" style="edgeStyle=orthogonalEdgeStyle;rounded=0;orthogonalLoop=1;jettySize=auto;html=1;" edge="1" parent="WIyWlLk6GJQsqaUBKTNV-1" source="vxpqx_h1XbM0o7AQPfHb-36" target="vxpqx_h1XbM0o7AQPfHb-32">
          <mxGeometry relative="1" as="geometry" />
        </mxCell>
        <mxCell id="vxpqx_h1XbM0o7AQPfHb-36" value="Помещение в CX длины ввода" style="rounded=0;whiteSpace=wrap;html=1;" vertex="1" parent="WIyWlLk6GJQsqaUBKTNV-1">
          <mxGeometry x="190" y="500" width="80" height="40" as="geometry" />
        </mxCell>
        <mxCell id="vxpqx_h1XbM0o7AQPfHb-46" style="edgeStyle=orthogonalEdgeStyle;rounded=0;orthogonalLoop=1;jettySize=auto;html=1;" edge="1" parent="WIyWlLk6GJQsqaUBKTNV-1" source="vxpqx_h1XbM0o7AQPfHb-39" target="vxpqx_h1XbM0o7AQPfHb-43">
          <mxGeometry relative="1" as="geometry" />
        </mxCell>
        <mxCell id="vxpqx_h1XbM0o7AQPfHb-39" value="Получение шестнадцатеричного кода символа" style="rounded=0;whiteSpace=wrap;html=1;" vertex="1" parent="WIyWlLk6GJQsqaUBKTNV-1">
          <mxGeometry x="170" y="680" width="120" height="40" as="geometry" />
        </mxCell>
        <mxCell id="vxpqx_h1XbM0o7AQPfHb-41" value="HEX" style="rounded=1;whiteSpace=wrap;html=1;" vertex="1" parent="WIyWlLk6GJQsqaUBKTNV-1">
          <mxGeometry x="320" y="680" width="30" height="40" as="geometry" />
        </mxCell>
        <mxCell id="vxpqx_h1XbM0o7AQPfHb-42" value="" style="endArrow=classic;startArrow=classic;html=1;rounded=0;" edge="1" parent="WIyWlLk6GJQsqaUBKTNV-1" source="vxpqx_h1XbM0o7AQPfHb-39" target="vxpqx_h1XbM0o7AQPfHb-41">
          <mxGeometry width="50" height="50" relative="1" as="geometry">
            <mxPoint x="180" y="640" as="sourcePoint" />
            <mxPoint x="230" y="590" as="targetPoint" />
          </mxGeometry>
        </mxCell>
        <mxCell id="vxpqx_h1XbM0o7AQPfHb-47" style="edgeStyle=orthogonalEdgeStyle;rounded=0;orthogonalLoop=1;jettySize=auto;html=1;entryX=0;entryY=0.5;entryDx=0;entryDy=0;" edge="1" parent="WIyWlLk6GJQsqaUBKTNV-1" source="vxpqx_h1XbM0o7AQPfHb-43" target="vxpqx_h1XbM0o7AQPfHb-34">
          <mxGeometry relative="1" as="geometry">
            <Array as="points">
              <mxPoint x="230" y="790" />
              <mxPoint x="150" y="790" />
              <mxPoint x="150" y="640" />
            </Array>
          </mxGeometry>
        </mxCell>
        <mxCell id="vxpqx_h1XbM0o7AQPfHb-43" value="Вывод кода, пробела" style="rounded=0;whiteSpace=wrap;html=1;" vertex="1" parent="WIyWlLk6GJQsqaUBKTNV-1">
          <mxGeometry x="170" y="740" width="120" height="30" as="geometry" />
        </mxCell>
        <mxCell id="vxpqx_h1XbM0o7AQPfHb-44" value="PUTCH" style="rounded=1;whiteSpace=wrap;html=1;" vertex="1" parent="WIyWlLk6GJQsqaUBKTNV-1">
          <mxGeometry x="320" y="740" width="50" height="30" as="geometry" />
        </mxCell>
        <mxCell id="vxpqx_h1XbM0o7AQPfHb-45" value="" style="endArrow=classic;startArrow=classic;html=1;rounded=0;" edge="1" parent="WIyWlLk6GJQsqaUBKTNV-1" source="vxpqx_h1XbM0o7AQPfHb-43" target="vxpqx_h1XbM0o7AQPfHb-44">
          <mxGeometry width="50" height="50" relative="1" as="geometry">
            <mxPoint x="180" y="780" as="sourcePoint" />
            <mxPoint x="230" y="730" as="targetPoint" />
          </mxGeometry>
        </mxCell>
        <mxCell id="vxpqx_h1XbM0o7AQPfHb-50" value="Конец буф." style="text;html=1;align=center;verticalAlign=middle;whiteSpace=wrap;rounded=0;" vertex="1" parent="WIyWlLk6GJQsqaUBKTNV-1">
          <mxGeometry x="280" y="620" width="70" height="20" as="geometry" />
        </mxCell>
        <mxCell id="vxpqx_h1XbM0o7AQPfHb-55" style="edgeStyle=orthogonalEdgeStyle;rounded=0;orthogonalLoop=1;jettySize=auto;html=1;" edge="1" parent="WIyWlLk6GJQsqaUBKTNV-1" source="vxpqx_h1XbM0o7AQPfHb-51" target="b1ORVTBcM8QreffQEjI8-8">
          <mxGeometry relative="1" as="geometry" />
        </mxCell>
        <mxCell id="vxpqx_h1XbM0o7AQPfHb-51" value="term" style="rhombus;whiteSpace=wrap;html=1;" vertex="1" parent="WIyWlLk6GJQsqaUBKTNV-1">
          <mxGeometry x="70" y="490" width="80" height="30" as="geometry" />
        </mxCell>
        <mxCell id="vxpqx_h1XbM0o7AQPfHb-59" style="edgeStyle=orthogonalEdgeStyle;rounded=0;orthogonalLoop=1;jettySize=auto;html=1;" edge="1" parent="WIyWlLk6GJQsqaUBKTNV-1" source="vxpqx_h1XbM0o7AQPfHb-56" target="vxpqx_h1XbM0o7AQPfHb-58">
          <mxGeometry relative="1" as="geometry" />
        </mxCell>
        <mxCell id="vxpqx_h1XbM0o7AQPfHb-56" value="Начало&lt;div&gt;GETSTRING&lt;/div&gt;" style="rounded=1;whiteSpace=wrap;html=1;fontSize=12;glass=0;strokeWidth=1;shadow=0;" vertex="1" parent="WIyWlLk6GJQsqaUBKTNV-1">
          <mxGeometry x="450" y="30" width="80" height="30" as="geometry" />
        </mxCell>
        <mxCell id="vxpqx_h1XbM0o7AQPfHb-57" value="Конец&lt;div&gt;GETSTRING&lt;/div&gt;" style="rounded=1;whiteSpace=wrap;html=1;fontSize=12;glass=0;strokeWidth=1;shadow=0;" vertex="1" parent="WIyWlLk6GJQsqaUBKTNV-1">
          <mxGeometry x="590" y="420" width="80" height="30" as="geometry" />
        </mxCell>
        <mxCell id="vxpqx_h1XbM0o7AQPfHb-61" style="edgeStyle=orthogonalEdgeStyle;rounded=0;orthogonalLoop=1;jettySize=auto;html=1;" edge="1" parent="WIyWlLk6GJQsqaUBKTNV-1" source="vxpqx_h1XbM0o7AQPfHb-58" target="vxpqx_h1XbM0o7AQPfHb-60">
          <mxGeometry relative="1" as="geometry" />
        </mxCell>
        <mxCell id="vxpqx_h1XbM0o7AQPfHb-58" value="Перенос адреса буфера" style="rounded=0;whiteSpace=wrap;html=1;" vertex="1" parent="WIyWlLk6GJQsqaUBKTNV-1">
          <mxGeometry x="450" y="80" width="80" height="40" as="geometry" />
        </mxCell>
        <mxCell id="vxpqx_h1XbM0o7AQPfHb-64" style="edgeStyle=orthogonalEdgeStyle;rounded=0;orthogonalLoop=1;jettySize=auto;html=1;" edge="1" parent="WIyWlLk6GJQsqaUBKTNV-1" source="vxpqx_h1XbM0o7AQPfHb-60" target="vxpqx_h1XbM0o7AQPfHb-62">
          <mxGeometry relative="1" as="geometry" />
        </mxCell>
        <mxCell id="vxpqx_h1XbM0o7AQPfHb-60" value="CYCLE_INPUT" style="rhombus;whiteSpace=wrap;html=1;" vertex="1" parent="WIyWlLk6GJQsqaUBKTNV-1">
          <mxGeometry x="430" y="140" width="120" height="40" as="geometry" />
        </mxCell>
        <mxCell id="vxpqx_h1XbM0o7AQPfHb-65" style="edgeStyle=orthogonalEdgeStyle;rounded=0;orthogonalLoop=1;jettySize=auto;html=1;" edge="1" parent="WIyWlLk6GJQsqaUBKTNV-1" source="vxpqx_h1XbM0o7AQPfHb-62" target="vxpqx_h1XbM0o7AQPfHb-63">
          <mxGeometry relative="1" as="geometry" />
        </mxCell>
        <mxCell id="vxpqx_h1XbM0o7AQPfHb-62" value="Получение&lt;div&gt;символа в буф.&lt;/div&gt;" style="rounded=0;whiteSpace=wrap;html=1;" vertex="1" parent="WIyWlLk6GJQsqaUBKTNV-1">
          <mxGeometry x="450" y="200" width="80" height="40" as="geometry" />
        </mxCell>
        <mxCell id="vxpqx_h1XbM0o7AQPfHb-75" style="edgeStyle=orthogonalEdgeStyle;rounded=0;orthogonalLoop=1;jettySize=auto;html=1;" edge="1" parent="WIyWlLk6GJQsqaUBKTNV-1" source="vxpqx_h1XbM0o7AQPfHb-63" target="vxpqx_h1XbM0o7AQPfHb-68">
          <mxGeometry relative="1" as="geometry" />
        </mxCell>
        <mxCell id="vxpqx_h1XbM0o7AQPfHb-63" value="Вывод&lt;div&gt;символа&lt;/div&gt;" style="rounded=0;whiteSpace=wrap;html=1;" vertex="1" parent="WIyWlLk6GJQsqaUBKTNV-1">
          <mxGeometry x="450" y="260" width="80" height="40" as="geometry" />
        </mxCell>
        <mxCell id="vxpqx_h1XbM0o7AQPfHb-66" style="edgeStyle=orthogonalEdgeStyle;rounded=0;orthogonalLoop=1;jettySize=auto;html=1;exitX=0.5;exitY=1;exitDx=0;exitDy=0;" edge="1" parent="WIyWlLk6GJQsqaUBKTNV-1" source="vxpqx_h1XbM0o7AQPfHb-68" target="vxpqx_h1XbM0o7AQPfHb-70">
          <mxGeometry relative="1" as="geometry" />
        </mxCell>
        <mxCell id="vxpqx_h1XbM0o7AQPfHb-78" style="edgeStyle=orthogonalEdgeStyle;rounded=0;orthogonalLoop=1;jettySize=auto;html=1;exitX=1;exitY=0.5;exitDx=0;exitDy=0;entryX=0.5;entryY=0;entryDx=0;entryDy=0;" edge="1" parent="WIyWlLk6GJQsqaUBKTNV-1" source="vxpqx_h1XbM0o7AQPfHb-68" target="vxpqx_h1XbM0o7AQPfHb-77">
          <mxGeometry relative="1" as="geometry" />
        </mxCell>
        <mxCell id="vxpqx_h1XbM0o7AQPfHb-68" value="Конец строки?" style="rhombus;whiteSpace=wrap;html=1;" vertex="1" parent="WIyWlLk6GJQsqaUBKTNV-1">
          <mxGeometry x="440" y="320" width="100" height="40" as="geometry" />
        </mxCell>
        <mxCell id="vxpqx_h1XbM0o7AQPfHb-69" style="edgeStyle=orthogonalEdgeStyle;rounded=0;orthogonalLoop=1;jettySize=auto;html=1;exitX=1;exitY=0.5;exitDx=0;exitDy=0;entryX=0.5;entryY=0;entryDx=0;entryDy=0;" edge="1" parent="WIyWlLk6GJQsqaUBKTNV-1" source="vxpqx_h1XbM0o7AQPfHb-70" target="vxpqx_h1XbM0o7AQPfHb-74">
          <mxGeometry relative="1" as="geometry" />
        </mxCell>
        <mxCell id="vxpqx_h1XbM0o7AQPfHb-76" style="edgeStyle=orthogonalEdgeStyle;rounded=0;orthogonalLoop=1;jettySize=auto;html=1;entryX=0;entryY=0.5;entryDx=0;entryDy=0;" edge="1" parent="WIyWlLk6GJQsqaUBKTNV-1" source="vxpqx_h1XbM0o7AQPfHb-70" target="vxpqx_h1XbM0o7AQPfHb-60">
          <mxGeometry relative="1" as="geometry">
            <mxPoint x="410" y="240" as="targetPoint" />
            <Array as="points">
              <mxPoint x="490" y="450" />
              <mxPoint x="410" y="450" />
              <mxPoint x="410" y="160" />
            </Array>
          </mxGeometry>
        </mxCell>
        <mxCell id="vxpqx_h1XbM0o7AQPfHb-70" value="Конец программы" style="rhombus;whiteSpace=wrap;html=1;" vertex="1" parent="WIyWlLk6GJQsqaUBKTNV-1">
          <mxGeometry x="440" y="380" width="100" height="60" as="geometry" />
        </mxCell>
        <mxCell id="vxpqx_h1XbM0o7AQPfHb-71" value="Нет" style="text;html=1;align=center;verticalAlign=middle;whiteSpace=wrap;rounded=0;" vertex="1" parent="WIyWlLk6GJQsqaUBKTNV-1">
          <mxGeometry x="450" y="360" width="30" height="20" as="geometry" />
        </mxCell>
        <mxCell id="vxpqx_h1XbM0o7AQPfHb-72" value="Нет" style="text;html=1;align=center;verticalAlign=middle;whiteSpace=wrap;rounded=0;" vertex="1" parent="WIyWlLk6GJQsqaUBKTNV-1">
          <mxGeometry x="450" y="430" width="30" height="20" as="geometry" />
        </mxCell>
        <mxCell id="vxpqx_h1XbM0o7AQPfHb-74" value="term" style="rhombus;whiteSpace=wrap;html=1;" vertex="1" parent="WIyWlLk6GJQsqaUBKTNV-1">
          <mxGeometry x="520" y="430" width="55.02" height="20" as="geometry" />
        </mxCell>
        <mxCell id="vxpqx_h1XbM0o7AQPfHb-79" style="edgeStyle=orthogonalEdgeStyle;rounded=0;orthogonalLoop=1;jettySize=auto;html=1;" edge="1" parent="WIyWlLk6GJQsqaUBKTNV-1" source="vxpqx_h1XbM0o7AQPfHb-77" target="vxpqx_h1XbM0o7AQPfHb-57">
          <mxGeometry relative="1" as="geometry" />
        </mxCell>
        <mxCell id="vxpqx_h1XbM0o7AQPfHb-77" value="Сохранение длины буф." style="rounded=0;whiteSpace=wrap;html=1;" vertex="1" parent="WIyWlLk6GJQsqaUBKTNV-1">
          <mxGeometry x="590" y="360" width="80" height="40" as="geometry" />
        </mxCell>
        <mxCell id="vxpqx_h1XbM0o7AQPfHb-80" value="Да" style="text;html=1;align=center;verticalAlign=middle;whiteSpace=wrap;rounded=0;" vertex="1" parent="WIyWlLk6GJQsqaUBKTNV-1">
          <mxGeometry x="110" y="185" width="30" height="20" as="geometry" />
        </mxCell>
        <mxCell id="vxpqx_h1XbM0o7AQPfHb-82" value="Да" style="text;html=1;align=center;verticalAlign=middle;whiteSpace=wrap;rounded=0;" vertex="1" parent="WIyWlLk6GJQsqaUBKTNV-1">
          <mxGeometry x="114.98" y="250" width="30" height="30" as="geometry" />
        </mxCell>
        <mxCell id="vxpqx_h1XbM0o7AQPfHb-83" value="Да" style="text;html=1;align=center;verticalAlign=middle;whiteSpace=wrap;rounded=0;" vertex="1" parent="WIyWlLk6GJQsqaUBKTNV-1">
          <mxGeometry x="530" y="390" width="30" height="20" as="geometry" />
        </mxCell>
        <mxCell id="vxpqx_h1XbM0o7AQPfHb-84" value="Да" style="text;html=1;align=center;verticalAlign=middle;whiteSpace=wrap;rounded=0;" vertex="1" parent="WIyWlLk6GJQsqaUBKTNV-1">
          <mxGeometry x="540" y="320" width="30" height="20" as="geometry" />
        </mxCell>
      </root>
    </mxGraphModel>
  </diagram>
</mxfile>
